# Blender v2.90.1 OBJ File: ''
# www.blender.org
mtllib wind.mtl
o Sundial_Arrow.001
v 0.000000 -0.130596 -8.000000
v 0.000000 -0.130596 -10.000000
v 0.060000 -0.112964 -10.000000
v 0.060000 -0.112964 -8.000000
v 0.103800 -0.065296 -10.000000
v 0.103800 -0.065296 -8.000000
v 0.120000 0.000000 -10.000000
v 0.120000 -0.000000 -8.000000
v 0.103800 0.065296 -10.000000
v 0.103800 0.065296 -8.000000
v 0.060000 0.112964 -10.000000
v 0.060000 0.112964 -8.000000
v 0.000000 0.130596 -10.000000
v 0.000000 0.130596 -8.000000
v -0.060000 0.112964 -10.000000
v -0.060000 0.112964 -8.000000
v -0.103800 0.065296 -10.000000
v -0.103800 0.065296 -8.000000
v -0.120000 0.000000 -10.000000
v -0.120000 -0.000000 -8.000000
v -0.103800 -0.065296 -10.000000
v -0.103800 -0.065296 -8.000000
v -0.060000 -0.112964 -10.000000
v -0.060000 -0.112964 -8.000000
v 0.000000 -0.000000 -7.500000
v 0.000000 -0.360000 -8.100000
v 0.138000 -0.332400 -8.100000
v 0.254400 -0.254400 -8.100000
v 0.332400 -0.138000 -8.100000
v 0.360000 -0.000000 -8.100000
v 0.332400 0.138000 -8.100000
v 0.254400 0.254400 -8.100000
v 0.138000 0.332400 -8.100000
v 0.000000 0.360000 -8.100000
v -0.138000 0.332400 -8.100000
v -0.254400 0.254400 -8.100000
v -0.332400 0.138000 -8.100000
v -0.360000 -0.000000 -8.100000
v -0.332400 -0.138000 -8.100000
v -0.254400 -0.254400 -8.100000
v -0.138000 -0.332400 -8.100000
v 0.000000 -0.000000 -8.100000
vt 0.000000 1.000000
vt 0.000000 0.500000
vt 0.083333 0.500000
vt 0.083333 1.000000
vt 0.166667 0.500000
vt 0.166667 1.000000
vt 0.250000 0.500000
vt 0.250000 1.000000
vt 0.333333 0.500000
vt 0.333333 1.000000
vt 0.416667 0.500000
vt 0.416667 1.000000
vt 0.500000 0.500000
vt 0.500000 1.000000
vt 0.583333 0.500000
vt 0.583333 1.000000
vt 0.666667 0.500000
vt 0.666667 1.000000
vt 0.750000 0.500000
vt 0.750000 1.000000
vt 0.833333 0.500000
vt 0.833333 1.000000
vt 0.916667 0.500000
vt 0.916667 1.000000
vt 1.000000 0.500000
vt 1.000000 1.000000
vt 0.000000 1.000000
vt 0.000000 0.000000
vt 0.062500 0.000000
vt 0.062500 1.000000
vt 0.125000 0.000000
vt 0.125000 1.000000
vt 0.187500 0.000000
vt 0.187500 1.000000
vt 0.250000 0.000000
vt 0.250000 1.000000
vt 0.312500 0.000000
vt 0.312500 1.000000
vt 0.375000 0.000000
vt 0.375000 1.000000
vt 0.437500 0.000000
vt 0.437500 1.000000
vt 0.500000 0.000000
vt 0.500000 1.000000
vt 0.562500 0.000000
vt 0.562500 1.000000
vt 0.625000 0.000000
vt 0.625000 1.000000
vt 0.687500 0.000000
vt 0.687500 1.000000
vt 0.750000 0.000000
vt 0.750000 1.000000
vt 0.812500 0.000000
vt 0.812500 1.000000
vt 0.875000 0.000000
vt 0.875000 1.000000
vt 0.937500 0.000000
vt 0.937500 1.000000
vt 1.000000 0.000000
vt 0.000000 1.000000
vn 0.2819 -0.9594 -0.0000
vn 0.4849 -0.8746 -0.0000
vn 0.4521 -0.8920 -0.0000
vn 0.8578 -0.5140 -0.0000
vn 0.8397 -0.5431 -0.0000
vn 0.9706 -0.2408 -0.0000
vn 0.9706 0.2408 0.0000
vn 0.9057 0.4240 0.0000
vn 0.9194 0.3934 0.0000
vn 0.5788 0.8155 0.0000
vn 0.6081 0.7939 0.0000
vn 0.2819 0.9594 0.0000
vn -0.2819 0.9594 0.0000
vn -0.4849 0.8746 0.0000
vn -0.4521 0.8920 0.0000
vn -0.8578 0.5140 -0.0000
vn -0.8397 0.5431 0.0000
vn -0.9706 0.2408 0.0000
vn -0.9706 -0.2408 -0.0000
vn -0.9057 -0.4240 -0.0000
vn -0.9194 -0.3934 -0.0000
vn -0.5788 -0.8155 -0.0001
vn -0.6081 -0.7939 -0.0000
vn -0.2819 -0.9594 -0.0000
vn 0.0499 -0.2497 0.9670
vn 0.0000 -0.8575 0.5145
vn 0.3291 -0.7919 0.5144
vn 0.6064 -0.6064 0.5143
vn 0.7919 -0.3291 0.5144
vn 0.8575 -0.0000 0.5145
vn 0.7919 0.3291 0.5144
vn 0.6064 0.6064 0.5143
vn 0.3291 0.7919 0.5144
vn 0.0000 0.8575 0.5145
vn -0.3291 0.7919 0.5144
vn -0.6064 0.6064 0.5143
vn -0.7919 0.3291 0.5144
vn -0.8575 -0.0000 0.5145
vn -0.7919 -0.3291 0.5144
vn -0.6064 -0.6064 0.5143
vn -0.3291 -0.7919 0.5144
vn -0.0000 0.0000 -1.0000
usemtl b0b0b0
s 1
f 1/1/1 2/2/1 3/3/2 4/4/3
f 4/4/3 3/3/2 5/5/4 6/6/5
f 6/6/5 5/5/4 7/7/6 8/8/6
f 8/8/7 7/7/7 9/9/8 10/10/9
f 10/10/9 9/9/8 11/11/10 12/12/11
f 12/12/11 11/11/10 13/13/12 14/14/12
f 14/14/13 13/13/13 15/15/14 16/16/15
f 16/16/15 15/15/14 17/17/16 18/18/17
f 18/18/17 17/17/16 19/19/18 20/20/18
f 20/20/19 19/19/19 21/21/20 22/22/21
f 22/22/21 21/21/20 23/23/22 24/24/23
f 24/24/23 23/23/22 2/25/24 1/26/24
f 25/27/25 26/28/26 27/29/27
f 25/30/25 27/29/27 28/31/28
f 25/32/25 28/31/28 29/33/29
f 25/34/25 29/33/29 30/35/30
f 25/36/25 30/35/30 31/37/31
f 25/38/25 31/37/31 32/39/32
f 25/40/25 32/39/32 33/41/33
f 25/42/25 33/41/33 34/43/34
f 25/44/25 34/43/34 35/45/35
f 25/46/25 35/45/35 36/47/36
f 25/48/25 36/47/36 37/49/37
f 25/50/25 37/49/37 38/51/38
f 25/52/25 38/51/38 39/53/39
f 25/54/25 39/53/39 40/55/40
f 25/56/25 40/55/40 41/57/41
f 25/58/25 41/57/41 26/59/26
f 27/29/42 26/28/42 42/60/42
f 28/31/42 27/29/42 42/60/42
f 29/33/42 28/31/42 42/60/42
f 30/35/42 29/33/42 42/60/42
f 31/37/42 30/35/42 42/60/42
f 32/39/42 31/37/42 42/60/42
f 33/41/42 32/39/42 42/60/42
f 34/43/42 33/41/42 42/60/42
f 35/45/42 34/43/42 42/60/42
f 36/47/42 35/45/42 42/60/42
f 37/49/42 36/47/42 42/60/42
f 38/51/42 37/49/42 42/60/42
f 39/53/42 38/51/42 42/60/42
f 40/55/42 39/53/42 42/60/42
f 41/57/42 40/55/42 42/60/42
f 26/59/42 41/57/42 42/60/42
